<svg xmlns="http://www.w3.org/2000/svg" viewBox="0 0 634.78 670.79"><defs><style>.cls-1,.cls-3{fill:#ed1e79;}.cls-2{fill:red;}.cls-3,.cls-5{font-size:30px;}.cls-3{font-family:Verdana-Bold, Verdana;font-weight:700;}.cls-4,.cls-6,.cls-8{fill:none;stroke-miterlimit:10;stroke-width:2px;}.cls-4{stroke:#0071bc;}.cls-5{fill:#0071bc;font-family:Verdana;}.cls-6{stroke:#006837;}.cls-7{fill:#006837;}.cls-8{stroke:#ed1e79;}</style></defs><g id="Layer_2" data-name="Layer 2"><g id="Layer_1-2" data-name="Layer 1"><circle class="cls-1" cx="577.53" cy="54.02" r="9.5"/><path class="cls-2" d="M577.53,45a9,9,0,1,1-9,9,9,9,0,0,1,9-9m0-1a10,10,0,1,0,10,10,10,10,0,0,0-10-10Z"/><text class="cls-3" transform="translate(524.82 25.91)">Target</text><circle class="cls-1" cx="189.15" cy="612.14" r="9.5"/><path class="cls-2" d="M189.15,603.14a9,9,0,1,1-9,9,9,9,0,0,1,9-9m0-1a10,10,0,1,0,10,10,10,10,0,0,0-10-10Z"/><text class="cls-3" transform="translate(131.3 661.69)">Vehicle</text><line class="cls-4" x1="199.15" y1="597.77" x2="567.53" y2="68.39"/><text class="cls-5" transform="translate(434.03 333.08)">Bearing 35°</text><line class="cls-6" x1="189.15" y1="251.87" x2="189.15" y2="594.54"/><path class="cls-7" d="M189.15,239.8c-2.1,5.68-5.7,12.73-9.51,17.1l9.51-3.44,9.51,3.44C194.85,252.53,191.26,245.48,189.15,239.8Z"/><text class="cls-5" transform="translate(0 423.44)">Heading 0°</text><path class="cls-8" d="M198.36,486.76c18.55-11,42.87-4.12,54.37,15.33"/><text class="cls-5" transform="translate(280.23 520.6)">Error -35°</text></g></g></svg>